<?xml version="1.0" standalone="no"?>
<!DOCTYPE svg PUBLIC "-//W3C//DTD SVG 20010904//EN"
 "http://www.w3.org/TR/2001/REC-SVG-20010904/DTD/svg10.dtd">
<svg version="1.0" xmlns="http://www.w3.org/2000/svg"
 width="432.000000pt" height="432.000000pt" viewBox="0 0 432.000000 432.000000"
 preserveAspectRatio="xMidYMid meet">

<g transform="translate(0.000000,432.000000) scale(0.100000,-0.100000)"
fill="#000000" stroke="none">
<path d="M3073 2475 c-1 -58 3 -105 8 -105 5 0 9 47 9 105 0 58 -4 105 -8 105
-5 0 -9 -47 -9 -105z"/>
<path d="M3131 2522 c-7 -14 -6 -24 4 -38 8 -11 15 -40 15 -66 0 -27 5 -48 10
-48 6 0 10 21 10 47 0 30 6 53 17 65 13 15 15 23 7 36 -16 25 -51 27 -63 4z
m47 -15 c2 -12 -3 -17 -17 -17 -12 0 -21 6 -21 13 0 31 32 34 38 4z"/>
<path d="M2977 2484 c-12 -12 -8 -41 8 -54 8 -7 16 -24 16 -39 l2 -26 4 25 c2
14 11 30 20 37 23 18 13 57 -17 61 -14 2 -29 0 -33 -4z m48 -25 c0 -7 -8 -15
-17 -17 -18 -3 -25 18 -11 32 10 10 28 1 28 -15z"/>
<path d="M2920 2415 c0 -25 5 -45 10 -45 6 0 10 20 10 45 0 25 -4 45 -10 45
-5 0 -10 -20 -10 -45z"/>
<path d="M947 2322 c-22 -24 -21 -55 1 -75 25 -23 55 -21 77 3 13 14 33 20 79
22 79 4 79 22 0 26 -46 2 -66 8 -79 22 -23 25 -57 26 -78 2z m66 -24 c7 -23
-4 -38 -29 -38 -19 0 -24 5 -24 25 0 20 5 25 24 25 13 0 26 -6 29 -12z"/>
<path d="M1200 2295 l0 -35 75 0 75 0 0 -150 0 -150 35 0 35 0 0 150 0 150 75
0 75 0 0 35 0 35 -185 0 -185 0 0 -35z"/>
<path d="M1632 2307 c-20 -22 -22 -33 -22 -164 0 -141 0 -142 26 -162 23 -18
41 -21 135 -21 l109 0 0 35 0 35 -100 0 -100 0 0 40 0 40 100 0 100 0 0 35 0
35 -100 0 -100 0 0 40 0 40 100 0 100 0 0 35 0 35 -113 0 c-106 0 -115 -2
-135 -23z"/>
<path d="M1980 2293 c0 -32 8 -46 57 -95 l57 -58 -57 -58 c-46 -46 -57 -64
-57 -90 0 -30 2 -32 35 -32 27 0 35 4 35 18 0 10 25 42 55 72 l55 54 55 -54
c30 -30 55 -62 55 -72 0 -14 8 -18 40 -18 38 0 40 2 40 31 0 24 -13 44 -59 93
l-60 61 60 62 c46 48 59 68 59 92 0 29 -2 31 -40 31 -35 0 -40 -3 -40 -23 0
-14 -20 -42 -54 -76 l-54 -53 -56 55 c-34 32 -56 62 -56 75 0 18 -6 22 -35 22
-34 0 -35 -1 -35 -37z"/>
<path d="M2430 2212 l0 -118 81 -67 c44 -37 87 -67 95 -67 25 0 56 20 127 83
l67 59 0 114 0 114 -35 0 -35 0 0 -97 0 -98 -54 -47 c-30 -27 -58 -48 -62 -48
-4 0 -31 21 -60 46 l-54 46 0 99 0 99 -35 0 -35 0 0 -118z"/>
<path d="M2905 2306 c-31 -31 -38 -74 -33 -196 3 -93 6 -102 31 -128 27 -26
31 -27 142 -27 111 0 115 1 142 27 25 26 28 35 31 128 5 122 -2 165 -33 196
-23 23 -31 24 -140 24 -109 0 -117 -1 -140 -24z m265 -21 c0 -8 -7 -15 -15
-15 -8 0 -15 7 -15 15 0 8 7 15 15 15 8 0 15 -7 15 -15z m-49 -34 c21 -16 24
-30 27 -98 3 -68 1 -81 -18 -105 -19 -25 -28 -28 -81 -28 -86 0 -99 16 -99
124 0 79 2 86 26 105 35 28 112 29 145 2z"/>
<path d="M3250 2310 c0 -6 27 -10 60 -10 33 0 60 4 60 10 0 6 -27 10 -60 10
-33 0 -60 -4 -60 -10z"/>
<path d="M3328 2240 c-9 -14 -24 -20 -46 -20 -41 0 -39 -23 2 -28 15 -2 36
-12 47 -23 10 -10 27 -19 37 -19 41 0 69 69 40 98 -19 19 -66 14 -80 -8z m61
-14 c17 -20 2 -48 -23 -44 -24 3 -34 37 -14 49 18 12 24 11 37 -5z"/>
<path d="M880 2180 c0 -6 55 -10 145 -10 90 0 145 4 145 10 0 6 -55 10 -145
10 -90 0 -145 -4 -145 -10z"/>
<path d="M1018 2119 c-22 -13 -24 -62 -2 -83 21 -21 50 -20 73 3 11 11 32 21
47 23 41 5 43 28 2 28 -22 0 -37 6 -46 20 -13 22 -46 26 -74 9z m52 -24 c17
-20 5 -45 -20 -45 -11 0 -23 7 -26 15 -6 15 11 45 26 45 4 0 13 -7 20 -15z"/>
<path d="M3257 2113 c-19 -19 5 -23 138 -23 122 0 145 2 145 15 0 13 -22 15
-138 15 -76 0 -142 -3 -145 -7z"/>
<path d="M3390 2030 c-9 -17 -21 -20 -75 -20 -37 0 -65 -4 -65 -10 0 -6 27
-10 60 -10 50 0 63 -4 84 -25 14 -14 32 -25 41 -25 21 0 55 36 55 59 0 47 -78
71 -100 31z m68 -28 c4 -28 -24 -40 -45 -19 -14 13 -14 19 -3 32 18 22 44 15
48 -13z"/>
<path d="M1050 1970 c0 -6 27 -10 60 -10 33 0 60 4 60 10 0 6 -27 10 -60 10
-33 0 -60 -4 -60 -10z"/>
<path d="M2920 1875 c0 -25 -7 -57 -16 -70 -13 -20 -14 -28 -4 -40 31 -37 84
3 55 41 -8 11 -15 40 -15 67 0 26 -4 47 -10 47 -5 0 -10 -20 -10 -45z m26 -86
c10 -17 -13 -36 -27 -22 -12 12 -4 33 11 33 5 0 12 -5 16 -11z"/>
<path d="M3004 1815 c0 -60 1 -84 3 -52 2 32 2 81 0 110 -2 29 -3 3 -3 -58z"/>
<path d="M3076 1908 c-4 -9 -5 -21 -2 -26 3 -6 -1 -15 -9 -22 -34 -28 -4 -81
34 -60 24 12 27 42 7 60 -8 6 -16 24 -19 38 -2 22 -5 24 -11 10z m24 -78 c0
-11 -6 -20 -14 -20 -18 0 -29 16 -21 30 11 18 35 11 35 -10z"/>
<path d="M3150 1875 c0 -25 5 -45 10 -45 6 0 10 20 10 45 0 25 -4 45 -10 45
-5 0 -10 -20 -10 -45z"/>
</g>
</svg>
